<?xml version="1.0" ?>
<mxfile host="65bd71144e">
	<diagram id="RFndyrCF2-3MIdXtw8gX" name="Page-1">
		<mxGraphModel dx="422" dy="816" grid="1" gridSize="10" guides="1" tooltips="1" connect="1" arrows="1" fold="1" page="1" pageScale="1" pageWidth="850" pageHeight="1100" math="0" shadow="0">
			<root>
				<mxCell id="0"/>
				<mxCell id="1" parent="0"/>
				<mxCell id="5624017056" value="&lt;b&gt;Module&lt;/b&gt;" style="rounded=1;whiteSpace=wrap;html=1;fillColor=#CC99FF;strokeColor=#000000;" parent="1" vertex="1">
					<mxGeometry x="1235.02" y="0.0" width="120" height="120" as="geometry"/>
				</mxCell>
				<mxCell id="5624016864" value="&lt;b&gt;FunctionDef&lt;/b&gt;&lt;br&gt;name: main&lt;br&gt;lineno: 2&lt;br&gt;col_offset: 0&lt;br&gt;end_lineno: 8&lt;br&gt;end_col_offset: 14" style="rounded=1;whiteSpace=wrap;html=1;fillColor=#66B2FF;strokeColor=#000000;" parent="1" vertex="1">
					<mxGeometry x="1235.02" y="144.0" width="120" height="120" as="geometry"/>
				</mxCell>
				<mxCell id="5624016720" value="&lt;b&gt;arguments&lt;/b&gt;" style="rounded=1;whiteSpace=wrap;html=1;fillColor=#E6E6E6;strokeColor=#000000;" parent="1" vertex="1">
					<mxGeometry x="1583.02" y="288.0" width="120" height="120" as="geometry"/>
				</mxCell>
				<mxCell id="5624016624" value="&lt;b&gt;FunctionDef&lt;/b&gt;&lt;br&gt;name: plus&lt;br&gt;lineno: 3&lt;br&gt;col_offset: 4&lt;br&gt;end_lineno: 4&lt;br&gt;end_col_offset: 20" style="rounded=1;whiteSpace=wrap;html=1;fillColor=#66B2FF;strokeColor=#000000;" parent="1" vertex="1">
					<mxGeometry x="1451.02" y="288.0" width="120" height="120" as="geometry"/>
				</mxCell>
				<mxCell id="5624016480" value="&lt;b&gt;arguments&lt;/b&gt;" style="rounded=1;whiteSpace=wrap;html=1;fillColor=#E6E6E6;strokeColor=#000000;" parent="1" vertex="1">
					<mxGeometry x="1604.02" y="432.0" width="120" height="120" as="geometry"/>
				</mxCell>
				<mxCell id="5624016288" value="&lt;b&gt;arg&lt;/b&gt;&lt;br&gt;arg: a&lt;br&gt;lineno: 3&lt;br&gt;col_offset: 13&lt;br&gt;end_lineno: 3&lt;br&gt;end_col_offset: 14" style="rounded=1;whiteSpace=wrap;html=1;fillColor=#E6E6E6;strokeColor=#000000;" parent="1" vertex="1">
					<mxGeometry x="1736.019" y="576.0" width="120" height="120" as="geometry"/>
				</mxCell>
				<mxCell id="5624016240" value="&lt;b&gt;arg&lt;/b&gt;&lt;br&gt;arg: b&lt;br&gt;lineno: 3&lt;br&gt;col_offset: 16&lt;br&gt;end_lineno: 3&lt;br&gt;end_col_offset: 17" style="rounded=1;whiteSpace=wrap;html=1;fillColor=#E6E6E6;strokeColor=#000000;" parent="1" vertex="1">
					<mxGeometry x="1604.02" y="576.0" width="120" height="120" as="geometry"/>
				</mxCell>
				<mxCell id="5624016384" value="&lt;b&gt;Return&lt;/b&gt;&lt;br&gt;lineno: 4&lt;br&gt;col_offset: 8&lt;br&gt;end_lineno: 4&lt;br&gt;end_col_offset: 20" style="rounded=1;whiteSpace=wrap;html=1;fillColor=#D6FFC9;strokeColor=#000000;" parent="1" vertex="1">
					<mxGeometry x="1463.02" y="432.0" width="120" height="120" as="geometry"/>
				</mxCell>
				<mxCell id="5624016144" value="&lt;b&gt;BinOp&lt;/b&gt;&lt;br&gt;lineno: 4&lt;br&gt;col_offset: 15&lt;br&gt;end_lineno: 4&lt;br&gt;end_col_offset: 20" style="rounded=1;whiteSpace=wrap;html=1;fillColor=#CCCCFF;strokeColor=#000000;" parent="1" vertex="1">
					<mxGeometry x="1472.02" y="576.0" width="120" height="120" as="geometry"/>
				</mxCell>
				<mxCell id="5624016000" value="&lt;b&gt;Name&lt;/b&gt;&lt;br&gt;id: a&lt;br&gt;lineno: 4&lt;br&gt;col_offset: 15&lt;br&gt;end_lineno: 4&lt;br&gt;end_col_offset: 16" style="rounded=1;whiteSpace=wrap;html=1;fillColor=#CCE5FF;strokeColor=#000000;" parent="1" vertex="1">
					<mxGeometry x="1736.019" y="720.0" width="120" height="120" as="geometry"/>
				</mxCell>
				<mxCell id="5624015856" value="&lt;b&gt;Load&lt;/b&gt;" style="rounded=1;whiteSpace=wrap;html=1;fillColor=#E6E6E6;strokeColor=#000000;" parent="1" vertex="1">
					<mxGeometry x="1344.02" y="864.0" width="120" height="120" as="geometry"/>
				</mxCell>
				<mxCell id="5624015904" value="&lt;b&gt;Add&lt;/b&gt;" style="rounded=1;whiteSpace=wrap;html=1;fillColor=#E6E6E6;strokeColor=#000000;" parent="1" vertex="1">
					<mxGeometry x="1604.02" y="720.0" width="120" height="120" as="geometry"/>
				</mxCell>
				<mxCell id="5624015760" value="&lt;b&gt;Name&lt;/b&gt;&lt;br&gt;id: b&lt;br&gt;lineno: 4&lt;br&gt;col_offset: 19&lt;br&gt;end_lineno: 4&lt;br&gt;end_col_offset: 20" style="rounded=1;whiteSpace=wrap;html=1;fillColor=#CCE5FF;strokeColor=#000000;" parent="1" vertex="1">
					<mxGeometry x="1472.02" y="720.0" width="120" height="120" as="geometry"/>
				</mxCell>
				<mxCell id="5624016528" value="&lt;b&gt;Assign&lt;/b&gt;&lt;br&gt;lineno: 6&lt;br&gt;col_offset: 4&lt;br&gt;end_lineno: 6&lt;br&gt;end_col_offset: 15" style="rounded=1;whiteSpace=wrap;html=1;fillColor=#D6FFC9;strokeColor=#000000;" parent="1" vertex="1">
					<mxGeometry x="868.02" y="288.0" width="120" height="120" as="geometry"/>
				</mxCell>
				<mxCell id="5624016336" value="&lt;b&gt;Tuple&lt;/b&gt;&lt;br&gt;lineno: 6&lt;br&gt;col_offset: 4&lt;br&gt;end_lineno: 6&lt;br&gt;end_col_offset: 8" style="rounded=1;whiteSpace=wrap;html=1;fillColor=#FFD9B3;strokeColor=#000000;" parent="1" vertex="1">
					<mxGeometry x="543.0" y="432.0" width="120" height="120" as="geometry"/>
				</mxCell>
				<mxCell id="5624015664" value="&lt;b&gt;Name&lt;/b&gt;&lt;br&gt;id: x&lt;br&gt;lineno: 6&lt;br&gt;col_offset: 4&lt;br&gt;end_lineno: 6&lt;br&gt;end_col_offset: 5" style="rounded=1;whiteSpace=wrap;html=1;fillColor=#CCE5FF;strokeColor=#000000;" parent="1" vertex="1">
					<mxGeometry x="604.0" y="576.0" width="120" height="120" as="geometry"/>
				</mxCell>
				<mxCell id="5624005584" value="&lt;b&gt;Store&lt;/b&gt;" style="rounded=1;whiteSpace=wrap;html=1;fillColor=#E6E6E6;strokeColor=#000000;" parent="1" vertex="1">
					<mxGeometry x="422.0" y="720.0" width="120" height="120" as="geometry"/>
				</mxCell>
				<mxCell id="5624015616" value="&lt;b&gt;Name&lt;/b&gt;&lt;br&gt;id: y&lt;br&gt;lineno: 6&lt;br&gt;col_offset: 7&lt;br&gt;end_lineno: 6&lt;br&gt;end_col_offset: 8" style="rounded=1;whiteSpace=wrap;html=1;fillColor=#CCE5FF;strokeColor=#000000;" parent="1" vertex="1">
					<mxGeometry x="472.0" y="576.0" width="120" height="120" as="geometry"/>
				</mxCell>
				<mxCell id="5624016576" value="&lt;b&gt;Tuple&lt;/b&gt;&lt;br&gt;lineno: 6&lt;br&gt;col_offset: 11&lt;br&gt;end_lineno: 6&lt;br&gt;end_col_offset: 15" style="rounded=1;whiteSpace=wrap;html=1;fillColor=#FFD9B3;strokeColor=#000000;" parent="1" vertex="1">
					<mxGeometry x="868.02" y="432.0" width="120" height="120" as="geometry"/>
				</mxCell>
				<mxCell id="5624006784" value="&lt;b&gt;Constant&lt;/b&gt;&lt;br&gt;value: 1&lt;br&gt;lineno: 6&lt;br&gt;col_offset: 11&lt;br&gt;end_lineno: 6&lt;br&gt;end_col_offset: 12" style="rounded=1;whiteSpace=wrap;html=1;fillColor=#FFFFFF;strokeColor=#000000;" parent="1" vertex="1">
					<mxGeometry x="868.02" y="576.0" width="120" height="120" as="geometry"/>
				</mxCell>
				<mxCell id="5624015328" value="&lt;b&gt;Constant&lt;/b&gt;&lt;br&gt;value: 2&lt;br&gt;lineno: 6&lt;br&gt;col_offset: 14&lt;br&gt;end_lineno: 6&lt;br&gt;end_col_offset: 15" style="rounded=1;whiteSpace=wrap;html=1;fillColor=#FFFFFF;strokeColor=#000000;" parent="1" vertex="1">
					<mxGeometry x="736.0" y="576.0" width="120" height="120" as="geometry"/>
				</mxCell>
				<mxCell id="5624146256" value="&lt;b&gt;Assign&lt;/b&gt;" style="rounded=1;whiteSpace=wrap;html=1;fillColor=#D6FFC9;strokeColor=#000000;" parent="1" vertex="1">
					<mxGeometry x="1175.02" y="432.0" width="120" height="120" as="geometry"/>
				</mxCell>
				<mxCell id="5624162880" value="&lt;b&gt;Tuple&lt;/b&gt;" style="rounded=1;whiteSpace=wrap;html=1;fillColor=#FFD9B3;strokeColor=#000000;" parent="1" vertex="1">
					<mxGeometry x="1000.02" y="576.0" width="120" height="120" as="geometry"/>
				</mxCell>
				<mxCell id="5624146448" value="&lt;b&gt;Name&lt;/b&gt;&lt;br&gt;id: a_new" style="rounded=1;whiteSpace=wrap;html=1;fillColor=#CCE5FF;strokeColor=#000000;" parent="1" vertex="1">
					<mxGeometry x="868.02" y="720.0" width="120" height="120" as="geometry"/>
				</mxCell>
				<mxCell id="5574753632" value="&lt;b&gt;Store&lt;/b&gt;" style="rounded=1;whiteSpace=wrap;html=1;fillColor=#E6E6E6;strokeColor=#000000;" parent="1" vertex="1">
					<mxGeometry x="868.02" y="864.0" width="120" height="120" as="geometry"/>
				</mxCell>
				<mxCell id="5624146064" value="&lt;b&gt;Name&lt;/b&gt;&lt;br&gt;id: b_new" style="rounded=1;whiteSpace=wrap;html=1;fillColor=#CCE5FF;strokeColor=#000000;" parent="1" vertex="1">
					<mxGeometry x="1000.02" y="720.0" width="120" height="120" as="geometry"/>
				</mxCell>
				<mxCell id="5624146880" value="&lt;b&gt;Store&lt;/b&gt;" style="rounded=1;whiteSpace=wrap;html=1;fillColor=#E6E6E6;strokeColor=#000000;" parent="1" vertex="1">
					<mxGeometry x="1000.02" y="864.0" width="120" height="120" as="geometry"/>
				</mxCell>
				<mxCell id="5624146352" value="&lt;b&gt;Tuple&lt;/b&gt;" style="rounded=1;whiteSpace=wrap;html=1;fillColor=#FFD9B3;strokeColor=#000000;" parent="1" vertex="1">
					<mxGeometry x="1175.02" y="576.0" width="120" height="120" as="geometry"/>
				</mxCell>
				<mxCell id="5615919088" value="&lt;b&gt;Name&lt;/b&gt;&lt;br&gt;id: x&lt;br&gt;lineno: 7&lt;br&gt;col_offset: 15&lt;br&gt;end_lineno: 7&lt;br&gt;end_col_offset: 16" style="rounded=1;whiteSpace=wrap;html=1;fillColor=#CCE5FF;strokeColor=#000000;" parent="1" vertex="1">
					<mxGeometry x="1170.02" y="720.0" width="120" height="120" as="geometry"/>
				</mxCell>
				<mxCell id="5055963504" value="&lt;b&gt;Name&lt;/b&gt;&lt;br&gt;id: y&lt;br&gt;lineno: 7&lt;br&gt;col_offset: 18&lt;br&gt;end_lineno: 7&lt;br&gt;end_col_offset: 19" style="rounded=1;whiteSpace=wrap;html=1;fillColor=#CCE5FF;strokeColor=#000000;" parent="1" vertex="1">
					<mxGeometry x="1302.02" y="720.0" width="120" height="120" as="geometry"/>
				</mxCell>
				<mxCell id="5624016192" value="&lt;b&gt;Assign&lt;/b&gt;&lt;br&gt;lineno: 7&lt;br&gt;col_offset: 4&lt;br&gt;end_lineno: 7&lt;br&gt;end_col_offset: 20" style="rounded=1;whiteSpace=wrap;html=1;fillColor=#D6FFC9;strokeColor=#000000;" parent="1" vertex="1">
					<mxGeometry x="349.0" y="288.0" width="120" height="120" as="geometry"/>
				</mxCell>
				<mxCell id="5624015952" value="&lt;b&gt;Name&lt;/b&gt;&lt;br&gt;id: res&lt;br&gt;lineno: 7&lt;br&gt;col_offset: 4&lt;br&gt;end_lineno: 7&lt;br&gt;end_col_offset: 7" style="rounded=1;whiteSpace=wrap;html=1;fillColor=#CCE5FF;strokeColor=#000000;" parent="1" vertex="1">
					<mxGeometry x="349.0" y="432.0" width="120" height="120" as="geometry"/>
				</mxCell>
				<mxCell id="5624162976" value="&lt;b&gt;BinOp&lt;/b&gt;&lt;br&gt;lineno: 4&lt;br&gt;col_offset: 15&lt;br&gt;end_lineno: 4&lt;br&gt;end_col_offset: 20" style="rounded=1;whiteSpace=wrap;html=1;fillColor=#CCCCFF;strokeColor=#000000;" parent="1" vertex="1">
					<mxGeometry x="175.0" y="432.0" width="120" height="120" as="geometry"/>
				</mxCell>
				<mxCell id="5624137664" value="&lt;b&gt;Name&lt;/b&gt;&lt;br&gt;id: a_new&lt;br&gt;lineno: 4&lt;br&gt;col_offset: 15&lt;br&gt;end_lineno: 4&lt;br&gt;end_col_offset: 16" style="rounded=1;whiteSpace=wrap;html=1;fillColor=#CCE5FF;strokeColor=#000000;" parent="1" vertex="1">
					<mxGeometry x="264.0" y="576.0" width="120" height="120" as="geometry"/>
				</mxCell>
				<mxCell id="5624137520" value="&lt;b&gt;Load&lt;/b&gt;" style="rounded=1;whiteSpace=wrap;html=1;fillColor=#E6E6E6;strokeColor=#000000;" parent="1" vertex="1">
					<mxGeometry x="229.0" y="720.0" width="120" height="120" as="geometry"/>
				</mxCell>
				<mxCell id="5624137568" value="&lt;b&gt;Add&lt;/b&gt;" style="rounded=1;whiteSpace=wrap;html=1;fillColor=#E6E6E6;strokeColor=#000000;" parent="1" vertex="1">
					<mxGeometry x="0.0" y="576.0" width="120" height="120" as="geometry"/>
				</mxCell>
				<mxCell id="5624146208" value="&lt;b&gt;Name&lt;/b&gt;&lt;br&gt;id: b_new&lt;br&gt;lineno: 4&lt;br&gt;col_offset: 19&lt;br&gt;end_lineno: 4&lt;br&gt;end_col_offset: 20" style="rounded=1;whiteSpace=wrap;html=1;fillColor=#CCE5FF;strokeColor=#000000;" parent="1" vertex="1">
					<mxGeometry x="132.0" y="576.0" width="120" height="120" as="geometry"/>
				</mxCell>
				<mxCell id="5624016096" value="&lt;b&gt;Return&lt;/b&gt;&lt;br&gt;lineno: 8&lt;br&gt;col_offset: 4&lt;br&gt;end_lineno: 8&lt;br&gt;end_col_offset: 14" style="rounded=1;whiteSpace=wrap;html=1;fillColor=#D6FFC9;strokeColor=#000000;" parent="1" vertex="1">
					<mxGeometry x="1310.02" y="288.0" width="120" height="120" as="geometry"/>
				</mxCell>
				<mxCell id="5624004768" value="&lt;b&gt;Name&lt;/b&gt;&lt;br&gt;id: res&lt;br&gt;lineno: 8&lt;br&gt;col_offset: 11&lt;br&gt;end_lineno: 8&lt;br&gt;end_col_offset: 14" style="rounded=1;whiteSpace=wrap;html=1;fillColor=#CCE5FF;strokeColor=#000000;" parent="1" vertex="1">
					<mxGeometry x="1326.02" y="432.0" width="120" height="120" as="geometry"/>
				</mxCell>
				<mxCell id="5624017056_5624016864" value="['body', 0]" style="endArrow=classic;html=1;" parent="1" source="5624017056" target="5624016864" edge="1">
					<mxGeometry width="50" height="50" relative="1" as="geometry">
						<mxPoint x="400" y="440" as="sourcePoint"/>
						<mxPoint x="450" y="390" as="targetPoint"/>
					</mxGeometry>
				</mxCell>
				<mxCell id="5624016864_5624016720" value="['args']" style="endArrow=classic;html=1;" parent="1" source="5624016864" target="5624016720" edge="1">
					<mxGeometry width="50" height="50" relative="1" as="geometry">
						<mxPoint x="400" y="440" as="sourcePoint"/>
						<mxPoint x="450" y="390" as="targetPoint"/>
					</mxGeometry>
				</mxCell>
				<mxCell id="5624016864_5624016624" value="['body', 0]" style="endArrow=classic;html=1;" parent="1" source="5624016864" target="5624016624" edge="1">
					<mxGeometry width="50" height="50" relative="1" as="geometry">
						<mxPoint x="400" y="440" as="sourcePoint"/>
						<mxPoint x="450" y="390" as="targetPoint"/>
					</mxGeometry>
				</mxCell>
				<mxCell id="5624016624_5624016480" value="['args']" style="endArrow=classic;html=1;" parent="1" source="5624016624" target="5624016480" edge="1">
					<mxGeometry width="50" height="50" relative="1" as="geometry">
						<mxPoint x="400" y="440" as="sourcePoint"/>
						<mxPoint x="450" y="390" as="targetPoint"/>
					</mxGeometry>
				</mxCell>
				<mxCell id="5624016480_5624016288" value="['args', 0]" style="endArrow=classic;html=1;" parent="1" source="5624016480" target="5624016288" edge="1">
					<mxGeometry width="50" height="50" relative="1" as="geometry">
						<mxPoint x="400" y="440" as="sourcePoint"/>
						<mxPoint x="450" y="390" as="targetPoint"/>
					</mxGeometry>
				</mxCell>
				<mxCell id="5624016480_5624016240" value="['args', 1]" style="endArrow=classic;html=1;" parent="1" source="5624016480" target="5624016240" edge="1">
					<mxGeometry width="50" height="50" relative="1" as="geometry">
						<mxPoint x="400" y="440" as="sourcePoint"/>
						<mxPoint x="450" y="390" as="targetPoint"/>
					</mxGeometry>
				</mxCell>
				<mxCell id="5624016624_5624016384" value="['body', 0]" style="endArrow=classic;html=1;" parent="1" source="5624016624" target="5624016384" edge="1">
					<mxGeometry width="50" height="50" relative="1" as="geometry">
						<mxPoint x="400" y="440" as="sourcePoint"/>
						<mxPoint x="450" y="390" as="targetPoint"/>
					</mxGeometry>
				</mxCell>
				<mxCell id="5624016384_5624016144" value="['value']" style="endArrow=classic;html=1;" parent="1" source="5624016384" target="5624016144" edge="1">
					<mxGeometry width="50" height="50" relative="1" as="geometry">
						<mxPoint x="400" y="440" as="sourcePoint"/>
						<mxPoint x="450" y="390" as="targetPoint"/>
					</mxGeometry>
				</mxCell>
				<mxCell id="5624016144_5624016000" value="['left']" style="endArrow=classic;html=1;" parent="1" source="5624016144" target="5624016000" edge="1">
					<mxGeometry width="50" height="50" relative="1" as="geometry">
						<mxPoint x="400" y="440" as="sourcePoint"/>
						<mxPoint x="450" y="390" as="targetPoint"/>
					</mxGeometry>
				</mxCell>
				<mxCell id="5624016000_5624015856" value="['ctx']" style="endArrow=classic;html=1;" parent="1" source="5624016000" target="5624015856" edge="1">
					<mxGeometry width="50" height="50" relative="1" as="geometry">
						<mxPoint x="400" y="440" as="sourcePoint"/>
						<mxPoint x="450" y="390" as="targetPoint"/>
					</mxGeometry>
				</mxCell>
				<mxCell id="5624016144_5624015904" value="['op']" style="endArrow=classic;html=1;" parent="1" source="5624016144" target="5624015904" edge="1">
					<mxGeometry width="50" height="50" relative="1" as="geometry">
						<mxPoint x="400" y="440" as="sourcePoint"/>
						<mxPoint x="450" y="390" as="targetPoint"/>
					</mxGeometry>
				</mxCell>
				<mxCell id="5624016144_5624015760" value="['right']" style="endArrow=classic;html=1;" parent="1" source="5624016144" target="5624015760" edge="1">
					<mxGeometry width="50" height="50" relative="1" as="geometry">
						<mxPoint x="400" y="440" as="sourcePoint"/>
						<mxPoint x="450" y="390" as="targetPoint"/>
					</mxGeometry>
				</mxCell>
				<mxCell id="5624015760_5624015856" value="['ctx']" style="endArrow=classic;html=1;" parent="1" source="5624015760" target="5624015856" edge="1">
					<mxGeometry width="50" height="50" relative="1" as="geometry">
						<mxPoint x="400" y="440" as="sourcePoint"/>
						<mxPoint x="450" y="390" as="targetPoint"/>
					</mxGeometry>
				</mxCell>
				<mxCell id="5624016864_5624016528" value="['body', 1]" style="endArrow=classic;html=1;" parent="1" source="5624016864" target="5624016528" edge="1">
					<mxGeometry width="50" height="50" relative="1" as="geometry">
						<mxPoint x="400" y="440" as="sourcePoint"/>
						<mxPoint x="450" y="390" as="targetPoint"/>
					</mxGeometry>
				</mxCell>
				<mxCell id="5624016528_5624016336" value="['targets', 0]" style="endArrow=classic;html=1;" parent="1" source="5624016528" target="5624016336" edge="1">
					<mxGeometry width="50" height="50" relative="1" as="geometry">
						<mxPoint x="400" y="440" as="sourcePoint"/>
						<mxPoint x="450" y="390" as="targetPoint"/>
					</mxGeometry>
				</mxCell>
				<mxCell id="5624016336_5624015664" value="['elts', 0]" style="endArrow=classic;html=1;" parent="1" source="5624016336" target="5624015664" edge="1">
					<mxGeometry width="50" height="50" relative="1" as="geometry">
						<mxPoint x="400" y="440" as="sourcePoint"/>
						<mxPoint x="450" y="390" as="targetPoint"/>
					</mxGeometry>
				</mxCell>
				<mxCell id="5624015664_5624005584" value="['ctx']" style="endArrow=classic;html=1;" parent="1" source="5624015664" target="5624005584" edge="1">
					<mxGeometry width="50" height="50" relative="1" as="geometry">
						<mxPoint x="400" y="440" as="sourcePoint"/>
						<mxPoint x="450" y="390" as="targetPoint"/>
					</mxGeometry>
				</mxCell>
				<mxCell id="5624016336_5624015616" value="['elts', 1]" style="endArrow=classic;html=1;" parent="1" source="5624016336" target="5624015616" edge="1">
					<mxGeometry width="50" height="50" relative="1" as="geometry">
						<mxPoint x="400" y="440" as="sourcePoint"/>
						<mxPoint x="450" y="390" as="targetPoint"/>
					</mxGeometry>
				</mxCell>
				<mxCell id="5624015616_5624005584" value="['ctx']" style="endArrow=classic;html=1;" parent="1" source="5624015616" target="5624005584" edge="1">
					<mxGeometry width="50" height="50" relative="1" as="geometry">
						<mxPoint x="400" y="440" as="sourcePoint"/>
						<mxPoint x="450" y="390" as="targetPoint"/>
					</mxGeometry>
				</mxCell>
				<mxCell id="5624016336_5624005584" value="['ctx']" style="endArrow=classic;html=1;" parent="1" source="5624016336" target="5624005584" edge="1">
					<mxGeometry width="50" height="50" relative="1" as="geometry">
						<mxPoint x="400" y="440" as="sourcePoint"/>
						<mxPoint x="450" y="390" as="targetPoint"/>
					</mxGeometry>
				</mxCell>
				<mxCell id="5624016528_5624016576" value="['value']" style="endArrow=classic;html=1;" parent="1" source="5624016528" target="5624016576" edge="1">
					<mxGeometry width="50" height="50" relative="1" as="geometry">
						<mxPoint x="400" y="440" as="sourcePoint"/>
						<mxPoint x="450" y="390" as="targetPoint"/>
					</mxGeometry>
				</mxCell>
				<mxCell id="5624016576_5624006784" value="['elts', 0]" style="endArrow=classic;html=1;" parent="1" source="5624016576" target="5624006784" edge="1">
					<mxGeometry width="50" height="50" relative="1" as="geometry">
						<mxPoint x="400" y="440" as="sourcePoint"/>
						<mxPoint x="450" y="390" as="targetPoint"/>
					</mxGeometry>
				</mxCell>
				<mxCell id="5624016576_5624015328" value="['elts', 1]" style="endArrow=classic;html=1;" parent="1" source="5624016576" target="5624015328" edge="1">
					<mxGeometry width="50" height="50" relative="1" as="geometry">
						<mxPoint x="400" y="440" as="sourcePoint"/>
						<mxPoint x="450" y="390" as="targetPoint"/>
					</mxGeometry>
				</mxCell>
				<mxCell id="5624016576_5624015856" value="['ctx']" style="endArrow=classic;html=1;" parent="1" source="5624016576" target="5624015856" edge="1">
					<mxGeometry width="50" height="50" relative="1" as="geometry">
						<mxPoint x="400" y="440" as="sourcePoint"/>
						<mxPoint x="450" y="390" as="targetPoint"/>
					</mxGeometry>
				</mxCell>
				<mxCell id="5624016864_5624146256" value="['body', 2]" style="endArrow=classic;html=1;" parent="1" source="5624016864" target="5624146256" edge="1">
					<mxGeometry width="50" height="50" relative="1" as="geometry">
						<mxPoint x="400" y="440" as="sourcePoint"/>
						<mxPoint x="450" y="390" as="targetPoint"/>
					</mxGeometry>
				</mxCell>
				<mxCell id="5624146256_5624162880" value="['targets', 0]" style="endArrow=classic;html=1;" parent="1" source="5624146256" target="5624162880" edge="1">
					<mxGeometry width="50" height="50" relative="1" as="geometry">
						<mxPoint x="400" y="440" as="sourcePoint"/>
						<mxPoint x="450" y="390" as="targetPoint"/>
					</mxGeometry>
				</mxCell>
				<mxCell id="5624162880_5624146448" value="['elts', 0]" style="endArrow=classic;html=1;" parent="1" source="5624162880" target="5624146448" edge="1">
					<mxGeometry width="50" height="50" relative="1" as="geometry">
						<mxPoint x="400" y="440" as="sourcePoint"/>
						<mxPoint x="450" y="390" as="targetPoint"/>
					</mxGeometry>
				</mxCell>
				<mxCell id="5624146448_5574753632" value="['ctx']" style="endArrow=classic;html=1;" parent="1" source="5624146448" target="5574753632" edge="1">
					<mxGeometry width="50" height="50" relative="1" as="geometry">
						<mxPoint x="400" y="440" as="sourcePoint"/>
						<mxPoint x="450" y="390" as="targetPoint"/>
					</mxGeometry>
				</mxCell>
				<mxCell id="5624162880_5624146064" value="['elts', 1]" style="endArrow=classic;html=1;" parent="1" source="5624162880" target="5624146064" edge="1">
					<mxGeometry width="50" height="50" relative="1" as="geometry">
						<mxPoint x="400" y="440" as="sourcePoint"/>
						<mxPoint x="450" y="390" as="targetPoint"/>
					</mxGeometry>
				</mxCell>
				<mxCell id="5624146064_5624146880" value="['ctx']" style="endArrow=classic;html=1;" parent="1" source="5624146064" target="5624146880" edge="1">
					<mxGeometry width="50" height="50" relative="1" as="geometry">
						<mxPoint x="400" y="440" as="sourcePoint"/>
						<mxPoint x="450" y="390" as="targetPoint"/>
					</mxGeometry>
				</mxCell>
				<mxCell id="5624146256_5624146352" value="['value']" style="endArrow=classic;html=1;" parent="1" source="5624146256" target="5624146352" edge="1">
					<mxGeometry width="50" height="50" relative="1" as="geometry">
						<mxPoint x="400" y="440" as="sourcePoint"/>
						<mxPoint x="450" y="390" as="targetPoint"/>
					</mxGeometry>
				</mxCell>
				<mxCell id="5624146352_5615919088" value="['elts', 0]" style="endArrow=classic;html=1;" parent="1" source="5624146352" target="5615919088" edge="1">
					<mxGeometry width="50" height="50" relative="1" as="geometry">
						<mxPoint x="400" y="440" as="sourcePoint"/>
						<mxPoint x="450" y="390" as="targetPoint"/>
					</mxGeometry>
				</mxCell>
				<mxCell id="5615919088_5624015856" value="['ctx']" style="endArrow=classic;html=1;" parent="1" source="5615919088" target="5624015856" edge="1">
					<mxGeometry width="50" height="50" relative="1" as="geometry">
						<mxPoint x="400" y="440" as="sourcePoint"/>
						<mxPoint x="450" y="390" as="targetPoint"/>
					</mxGeometry>
				</mxCell>
				<mxCell id="5624146352_5055963504" value="['elts', 1]" style="endArrow=classic;html=1;" parent="1" source="5624146352" target="5055963504" edge="1">
					<mxGeometry width="50" height="50" relative="1" as="geometry">
						<mxPoint x="400" y="440" as="sourcePoint"/>
						<mxPoint x="450" y="390" as="targetPoint"/>
					</mxGeometry>
				</mxCell>
				<mxCell id="5055963504_5624015856" value="['ctx']" style="endArrow=classic;html=1;" parent="1" source="5055963504" target="5624015856" edge="1">
					<mxGeometry width="50" height="50" relative="1" as="geometry">
						<mxPoint x="400" y="440" as="sourcePoint"/>
						<mxPoint x="450" y="390" as="targetPoint"/>
					</mxGeometry>
				</mxCell>
				<mxCell id="5624016864_5624016192" value="['body', 3]" style="endArrow=classic;html=1;" parent="1" source="5624016864" target="5624016192" edge="1">
					<mxGeometry width="50" height="50" relative="1" as="geometry">
						<mxPoint x="400" y="440" as="sourcePoint"/>
						<mxPoint x="450" y="390" as="targetPoint"/>
					</mxGeometry>
				</mxCell>
				<mxCell id="5624016192_5624015952" value="['targets', 0]" style="endArrow=classic;html=1;" parent="1" source="5624016192" target="5624015952" edge="1">
					<mxGeometry width="50" height="50" relative="1" as="geometry">
						<mxPoint x="400" y="440" as="sourcePoint"/>
						<mxPoint x="450" y="390" as="targetPoint"/>
					</mxGeometry>
				</mxCell>
				<mxCell id="5624015952_5624005584" value="['ctx']" style="endArrow=classic;html=1;" parent="1" source="5624015952" target="5624005584" edge="1">
					<mxGeometry width="50" height="50" relative="1" as="geometry">
						<mxPoint x="400" y="440" as="sourcePoint"/>
						<mxPoint x="450" y="390" as="targetPoint"/>
					</mxGeometry>
				</mxCell>
				<mxCell id="5624016192_5624162976" value="['value']" style="endArrow=classic;html=1;" parent="1" source="5624016192" target="5624162976" edge="1">
					<mxGeometry width="50" height="50" relative="1" as="geometry">
						<mxPoint x="400" y="440" as="sourcePoint"/>
						<mxPoint x="450" y="390" as="targetPoint"/>
					</mxGeometry>
				</mxCell>
				<mxCell id="5624162976_5624137664" value="['left']" style="endArrow=classic;html=1;" parent="1" source="5624162976" target="5624137664" edge="1">
					<mxGeometry width="50" height="50" relative="1" as="geometry">
						<mxPoint x="400" y="440" as="sourcePoint"/>
						<mxPoint x="450" y="390" as="targetPoint"/>
					</mxGeometry>
				</mxCell>
				<mxCell id="5624137664_5624137520" value="['ctx']" style="endArrow=classic;html=1;" parent="1" source="5624137664" target="5624137520" edge="1">
					<mxGeometry width="50" height="50" relative="1" as="geometry">
						<mxPoint x="400" y="440" as="sourcePoint"/>
						<mxPoint x="450" y="390" as="targetPoint"/>
					</mxGeometry>
				</mxCell>
				<mxCell id="5624162976_5624137568" value="['op']" style="endArrow=classic;html=1;" parent="1" source="5624162976" target="5624137568" edge="1">
					<mxGeometry width="50" height="50" relative="1" as="geometry">
						<mxPoint x="400" y="440" as="sourcePoint"/>
						<mxPoint x="450" y="390" as="targetPoint"/>
					</mxGeometry>
				</mxCell>
				<mxCell id="5624162976_5624146208" value="['right']" style="endArrow=classic;html=1;" parent="1" source="5624162976" target="5624146208" edge="1">
					<mxGeometry width="50" height="50" relative="1" as="geometry">
						<mxPoint x="400" y="440" as="sourcePoint"/>
						<mxPoint x="450" y="390" as="targetPoint"/>
					</mxGeometry>
				</mxCell>
				<mxCell id="5624146208_5624137520" value="['ctx']" style="endArrow=classic;html=1;" parent="1" source="5624146208" target="5624137520" edge="1">
					<mxGeometry width="50" height="50" relative="1" as="geometry">
						<mxPoint x="400" y="440" as="sourcePoint"/>
						<mxPoint x="450" y="390" as="targetPoint"/>
					</mxGeometry>
				</mxCell>
				<mxCell id="5624016864_5624016096" value="['body', 4]" style="endArrow=classic;html=1;" parent="1" source="5624016864" target="5624016096" edge="1">
					<mxGeometry width="50" height="50" relative="1" as="geometry">
						<mxPoint x="400" y="440" as="sourcePoint"/>
						<mxPoint x="450" y="390" as="targetPoint"/>
					</mxGeometry>
				</mxCell>
				<mxCell id="5624016096_5624004768" value="['value']" style="endArrow=classic;html=1;" parent="1" source="5624016096" target="5624004768" edge="1">
					<mxGeometry width="50" height="50" relative="1" as="geometry">
						<mxPoint x="400" y="440" as="sourcePoint"/>
						<mxPoint x="450" y="390" as="targetPoint"/>
					</mxGeometry>
				</mxCell>
				<mxCell id="5624004768_5624015856" value="['ctx']" style="endArrow=classic;html=1;" parent="1" source="5624004768" target="5624015856" edge="1">
					<mxGeometry width="50" height="50" relative="1" as="geometry">
						<mxPoint x="400" y="440" as="sourcePoint"/>
						<mxPoint x="450" y="390" as="targetPoint"/>
					</mxGeometry>
				</mxCell>
			</root>
		</mxGraphModel>
	</diagram>
</mxfile>
